<svg xmlns="http://www.w3.org/2000/svg">
    <g id="svgNine">
        <path d="M11.9,17.9c-0.8,0.3-1.8,0.4-2.8,0.4c-5.2,0-8.9-4.1-8.9-9c0-5.1,3.9-9,9.1-9 c5.2,0,9.1,4,9.1,8.9c0,2.5-1,4.4-1.9,5.9L8,28H5.3L11.9,17.9z M14.2,14.1c0.7-1.2,1.7-2.7,1.7-4.8c0-3.8-2.8-6.8-6.8-6.8 c-3.8,0-6.7,3-6.7,6.8c0,3.9,2.8,6.8,6.7,6.8C11.2,16.1,12.9,15.3,14.2,14.1z"></path>
    </g>
    <g id="svgEight">
        <path d="M14.2,12.4c1.8-1.2,3-3.2,3-5.5c0-3.8-3-6.9-7.2-6.9C5.8,0,2.8,3.1,2.8,6.9 c0,2.3,1.1,4.3,3,5.5C2.8,13.8,1,16.6,1,19.8c0,4.8,3.8,8.3,9,8.3c5.2,0,9-3.5,9-8.3C18.9,16.6,17.1,13.8,14.2,12.4z M5.1,6.9 c0-2.6,2-4.6,4.9-4.6c2.8,0,4.9,2.1,4.9,4.6c0,2.5-2,4.5-4.9,4.6C7.1,11.4,5.1,9.4,5.1,6.9z M10,25.9c-3.9,0-6.6-2.7-6.6-6.1 c0-3.4,2.7-6.1,6.6-6.1c3.9,0,6.6,2.7,6.6,6.1C16.6,23.1,13.9,25.9,10,25.9z"></path>
    </g>
    <g id="svgSeven">
        <path d="M0.1,0.1h16.8v1.4L4.5,27.4H2.1l12-25.1h-14V0.1z"></path>
    </g>
    <g id="svgSix">
        <path d="M6.5,10.2c0.8-0.3,1.8-0.4,2.8-0.4c5.2,0,8.9,4.1,8.9,9c0,5.1-3.9,9-9.1,9 c-5.2,0-9.1-4-9.1-8.9c0-2.5,1-4.4,1.9-5.9l8.4-13h2.7L6.5,10.2z M4.1,13.9c-0.7,1.2-1.7,2.7-1.7,4.8c0,3.8,2.8,6.8,6.8,6.8 c3.8,0,6.7-3,6.7-6.8c0-3.9-2.8-6.8-6.8-6.8C7.2,12,5.5,12.7,4.1,13.9z"></path>
    </g>
    <g id="svgFive">
        <path d="M16,0.1v2.2H5l-1.1,8C5,9.8,6.3,9.4,7.7,9.4c5.2,0,9.2,4.1,9.2,9.2c0,5-3.9,9.2-9.1,9.2 c-3.2,0-6-1.6-7.7-4L2,22.5c1.2,1.8,3.4,3,5.8,3c4,0,6.8-3.2,6.8-6.9c0-3.8-3-6.9-6.9-6.9c-1.9,0-3.6,0.8-4.8,1.9l-1.6-0.2L3.1,0.1 H16z"></path>
    </g>
    <g id="svgFour">
        <path d="M16.3,18.1V0.1h-1.6L0.1,18.9v1.4H14v7h2.3v-7h4.5v-2.2H16.3z M14,18.1H3.6L14,4.7V18.1z"></path>
    </g>
    <g id="svgThree">
        <path d="M2,22.3c1.2,2,3.5,3.3,6.3,3.3c4.1,0,6.8-3.2,6.8-6.9c0-4-3.1-6.9-7.3-6.9 c-1.5,0-2.4,0.3-2.8,0.4v-1.4l7.2-8.3H1.4V0.1h14.4v1.4l-6.9,8c4.9,0.4,8.5,4.3,8.5,9.1c0,4.9-3.7,9.2-9.1,9.2 c-3.6,0-6.6-1.6-8.2-4.3L2,22.3z"></path>
    </g>
    <g id="svgTwo">
        <path d="M0.3,6.3c0.8-3.5,3.6-6.2,7.6-6.2c4.6,0,7.8,3.3,7.8,7.7c0,2.4-0.9,4.4-3.2,7.2L3.8,25.5 h12.4v2.2h-16v-1.4l10.5-12.6c2.2-2.7,2.8-4.3,2.8-5.9c0-3.2-2.3-5.5-5.4-5.5c-2.9,0-4.9,1.9-5.6,4.8L0.3,6.3z"></path>
    </g>
    <g id="svgOne">
        <polygon points="0.1,3.7 6.2,0.1 7.7,0.1 7.7,27.4 5.4,27.4 5.4,3.1 0.1,6.1"></polygon>
    </g>
    <g id="svgZero">
        <path d="M9.3,0.1c-6.7,0-9.2,6-9.2,14c0,8.1,2.5,14,9.2,14s9.2-6,9.2-14C18.5,6,16,0.1,9.3,0.1z M9.3,25.9c-5.1,0-6.8-5.1-6.8-11.8c0-6.7,1.8-11.8,6.8-11.8c5.1,0,6.8,5.1,6.8,11.8C16.1,20.9,14.4,25.9,9.3,25.9z"></path>
    </g>
    <g id="svgScore">
        <path d="M1.7,21.5c1.6,2,3.7,3.8,7.2,3.8c2.7,0,5.5-1.9,5.5-5c0-4.9-5.7-5.4-9.6-7.8c-2-1.2-3.6-2.8-3.6-5.5 c0-4.2,3.3-7,7.6-7c3.4,0,5.6,1.6,6.8,2.7l-1.5,1.7C12.5,3,11,2.2,8.8,2.2c-3,0-5.4,1.8-5.4,4.7c0,4.1,5.4,4.6,9.2,7 c2.2,1.4,4.1,3.4,4.1,6.5c0,4.2-3.4,7.2-7.8,7.2c-3.6,0-6.6-1.5-8.9-4.5L1.7,21.5z"></path>
        <path d="M51,22.6c-2.3,2.9-6.2,4.9-10.3,4.9c-8,0-13.8-5.9-13.8-13.8C26.9,6,32.6,0,40.3,0c3.8,0,7.4,1.5,9.7,4.1 l-1.6,1.6c-1.9-2.1-4.8-3.5-8.1-3.5c-6.4,0-11.1,5.2-11.1,11.6c0,6.5,4.7,11.6,11.4,11.6c3.7,0,6.9-1.8,8.8-4.2L51,22.6z"></path>
        <path d="M73.1,0c7.6,0,13.3,6,13.3,13.8c0,7.8-5.7,13.8-13.3,13.8c-7.6,0-13.3-6-13.3-13.8C59.8,6,65.6,0,73.1,0z M73.1,25.4c6.5,0,11-5.2,11-11.6s-4.6-11.6-11-11.6s-11,5.2-11,11.6S66.7,25.4,73.1,25.4z"></path>
        <path d="M116,26.8l-10.3-13.7h-4.5v13.7h-2.3V0h9.1c2.4,0,4,0.7,5.2,1.7c1.3,1.2,2.1,2.9,2.1,4.8s-0.8,3.6-2.1,4.8 c-1.1,1-2.6,1.6-4.8,1.7l10.3,13.7H116z M107.8,10.9c1.9,0,2.9-0.4,3.7-1.1c0.9-0.8,1.4-2,1.4-3.2s-0.5-2.4-1.4-3.2 c-0.8-0.7-1.8-1.1-3.7-1.1h-6.7v8.7H107.8z"></path>
        <path d="M131.9,2.2v8.7h9.6v2.2h-9.6v11.5h12.6v2.2h-14.9V0h14.5v2.2H131.9z"></path>
    </g>
    <g id="svgSkipperWordmark">
        <rect x="60.3" y="0.4" width="5.6" height="26.7"></rect>
        <path d="M83.3,5.4h3.4c1.3,0,2.3,0.4,2.9,1.1c0.7,0.7,1,1.8,1,3.1c0,1.1-0.3,2-1.1,2.6c-0.7,0.6-1.7,1-2.9,1h-3.4 V5.4z M93.5,2.5c-0.8-0.7-1.8-1.2-2.8-1.6c-1-0.4-2.2-0.5-3.4-0.5h-9.7v26.7h5.6v-8.8h3.8c1,0,1.9-0.1,2.8-0.3 c0.9-0.2,1.7-0.5,2.5-1c0.8-0.5,1.5-1,2-1.7c0.6-0.7,1-1.6,1.3-2.6c0.3-1,0.5-2.2,0.5-3.5c0-1.4-0.2-2.7-0.7-3.8 C95,4.1,94.3,3.2,93.5,2.5"></path>
        <path d="M111.4,5.4h3.4c1.3,0,2.3,0.4,2.9,1.1c0.7,0.7,1,1.8,1,3.1c0,1.1-0.3,2-1.1,2.6c-0.7,0.6-1.7,1-2.9,1h-3.4 V5.4z M121.6,2.5c-0.8-0.7-1.8-1.2-2.8-1.6c-1-0.4-2.2-0.5-3.4-0.5h-9.7v26.7h5.6v-8.8h3.8c1,0,1.9-0.1,2.8-0.3 c0.9-0.2,1.7-0.5,2.5-1c0.8-0.5,1.5-1,2-1.7c0.6-0.7,1-1.6,1.3-2.6c0.3-1,0.5-2.2,0.5-3.5c0-1.4-0.2-2.7-0.7-3.8 C123.1,4.1,122.4,3.2,121.6,2.5"></path>
        <polygon points="139,16.1 148.7,16.1 148.7,11.1 139,11.1 139,5.4 149.8,5.4 149.8,0.4 133.3,0.4 133.3,27.1 
            149.8,27.1 149.8,22 139,22"></polygon>
        <path d="M50.8,21.7l-0.4,0.1c-0.2,0-0.4,0-0.8,0c-0.4,0-0.7,0-1-0.1c-0.3-0.1-0.6-0.1-0.8-0.2 c-0.2-0.1-0.5-0.2-0.8-0.5c-0.3-0.3-0.6-0.6-0.8-0.8c-0.2-0.2-0.6-0.6-1-1.2c-0.4-0.6-0.8-1.1-1.2-1.6c-0.3-0.5-0.9-1.2-1.6-2.2 c-0.6-0.9-1.2-1.7-1.8-2.4L51.5,0.4h-7.2L35,11.3V0.4h-5.6v26.7H35v-7.9L37,17c0,0.1,0.1,0.1,0.1,0.2c0.2,0.2,0.3,0.4,0.4,0.5 c0.1,0.1,0.2,0.3,0.4,0.6c0.6,0.8,1,1.5,1.4,2c0.3,0.5,0.7,1,1.2,1.7c0.5,0.7,0.9,1.2,1.1,1.5c0.3,0.3,0.6,0.7,1,1.2 c0.4,0.5,0.8,0.8,1.1,1.1c0.3,0.2,0.7,0.5,1.1,0.7c0.4,0.3,0.9,0.5,1.3,0.6c0.4,0.1,0.8,0.2,1.3,0.3c0.5,0.1,1,0.1,1.5,0.1 c0.7,0,1.4,0,2-0.1V21.7z"></path>
        <path d="M172.5,11.8c-0.8,0.7-1.7,1-2.8,1h-3.4V5.4h3.4c1.3,0,2.3,0.3,3,1c0.7,0.7,1,1.6,1,2.8 C173.7,10.3,173.3,11.1,172.5,11.8 M180.6,21.7l-0.4,0.1c-0.2,0-0.4,0-0.8,0c-0.8,0-1.5-0.4-2.2-1.2c-0.7-0.8-1.7-2.3-3-4.4 c1.4-0.5,2.6-1.3,3.5-2.4c1-1.2,1.5-2.9,1.5-4.9c0-1.4-0.2-2.6-0.7-3.7c-0.5-1.1-1.1-2-2-2.7c-0.8-0.7-1.8-1.2-2.8-1.6 c-1-0.3-2.2-0.5-3.4-0.5h-9.7v26.7h5.6v-9.2h2.4c1.1,1.9,2.1,3.5,2.8,4.6c0.8,1.2,1.6,2.1,2.3,2.9c0.8,0.8,1.5,1.3,2.3,1.6 c0.7,0.3,1.5,0.4,2.5,0.4c0.7,0,1.4,0,2-0.1V21.7z"></path>
        <path d="M16.3,14.3c-0.7-0.6-1.5-1.1-2.4-1.5c-0.9-0.4-1.7-0.8-2.6-1.2c-0.8-0.3-1.6-0.7-2.3-1 c-0.7-0.3-1.2-0.7-1.6-1.2C7,8.9,6.8,8.4,6.8,7.9c0-0.7,0.3-1.8,1.4-2.2c1.1-0.4,3-0.3,4.1,0.4c1,0.6,1.3,1.1,2.1,2.5l4.6-2 c-0.8-2.6-3.3-6.4-8.9-6.4c-2.8,0-5,0.7-6.5,2.1C2,3.7,1.2,5.6,1.2,7.9c0,1.1,0.2,2.1,0.5,3c0.4,0.9,0.8,1.6,1.4,2.2 c0.6,0.6,1.2,1.1,1.9,1.5c0.7,0.5,1.5,0.8,2.2,1.1c0.7,0.3,1.4,0.6,2.1,0.9c0.7,0.3,1.3,0.6,1.9,0.9c0.5,0.3,0.9,0.6,1.2,1 c0.3,0.4,0.4,0.8,0.4,1.2c0,1-0.4,2.3-3.5,2.3c-1.2,0-2.4-0.2-3.7-0.7c-1.2-0.5-2.2-1-3-1.7l-0.4-0.3l-2.3,4.8l0.2,0.2 c2.5,2,5.7,3,9.3,3c2.8,0,5.1-0.7,6.7-2c1.6-1.4,2.4-3.2,2.4-5.5c0-1.2-0.2-2.3-0.7-3.3C17.6,15.6,17,14.8,16.3,14.3"></path>
    </g>
    <g id="svgSkipperLockup">
        <path d="M79.5,10.1c-3.4,0-6.7,0.3-8.6,1.2V12c0,1.2,3.6,3.6,8.6,3.6c5,0,8.6-2.1,8.6-3.6v-0.7 C86.2,10.4,82.9,10.1,79.5,10.1"></path>
        <path d="M91.9,5.9c0-1.4-10.9-5.8-12.5-5.8C77.8,0.1,67,4.5,67,5.9c0,1.4,0.7,3.5,2.9,4.6v0 c2.4-1.1,5.7-1.6,9.4-1.6c0.1,0,0.1,0,0.2,0c3.7,0,7,0.5,9.4,1.6l0,0C91.2,9.4,91.9,7.3,91.9,5.9 M79.5,6.4c-0.9,0-2.1,0-3.1,0.1 l3.1-3.1l3.1,3.1C81.6,6.4,80.3,6.4,79.5,6.4"></path>
        <rect x="53" y="27.3" width="5" height="23.5"></rect>
        <path d="M82.2,29.2c-0.7-0.6-1.6-1.1-2.5-1.4c-0.9-0.3-1.9-0.5-3-0.5h-8.5v23.5h5V43h3.3c0.9,0,1.7-0.1,2.5-0.3 c0.8-0.2,1.5-0.5,2.2-0.9c0.7-0.4,1.3-0.9,1.8-1.5c0.5-0.6,0.9-1.4,1.2-2.3c0.3-0.9,0.4-2,0.4-3.1c0-1.2-0.2-2.3-0.6-3.3 C83.5,30.6,82.9,29.8,82.2,29.2 M73.3,31.7h2.9c1.1,0,2,0.3,2.6,0.9c0.6,0.6,0.9,1.5,0.9,2.7c0,1-0.3,1.8-0.9,2.3 c-0.6,0.6-1.5,0.8-2.5,0.8h-2.9V31.7z"></path>
        <path d="M106.9,29.2c-0.7-0.6-1.6-1.1-2.5-1.4c-0.9-0.3-1.9-0.5-3-0.5H93v23.5h5V43h3.3c0.9,0,1.7-0.1,2.5-0.3 c0.8-0.2,1.5-0.5,2.2-0.9c0.7-0.4,1.3-0.9,1.8-1.5c0.5-0.6,0.9-1.4,1.2-2.3c0.3-0.9,0.4-2,0.4-3.1c0-1.2-0.2-2.3-0.6-3.3 C108.2,30.6,107.6,29.8,106.9,29.2 M97.9,31.7h2.9c1.1,0,2,0.3,2.6,0.9c0.6,0.6,0.9,1.5,0.9,2.7c0,1-0.3,1.8-0.9,2.3 c-0.6,0.6-1.5,0.8-2.5,0.8h-2.9V31.7z"></path>
        <polygon points="122.2,41.2 130.7,41.2 130.7,36.8 122.2,36.8 122.2,31.7 131.7,31.7 131.7,27.3 117.2,27.3  117.2,50.8 131.7,50.8 131.7,46.3 122.2,46.3"></polygon>
        <path d="M44.6,46.1l-0.4,0c-0.2,0-0.4,0-0.7,0c-0.3,0-0.6,0-0.9-0.1C42.5,46,42.2,46,42,45.9 c-0.2-0.1-0.4-0.2-0.7-0.4c-0.3-0.3-0.5-0.5-0.7-0.7c-0.2-0.2-0.5-0.6-0.9-1.1c-0.4-0.5-0.7-1-1-1.4c-0.3-0.4-0.8-1.1-1.4-1.9 c-0.6-0.8-1.1-1.5-1.5-2.1l9.5-10.9h-6.4l-8.1,9.6v-9.6h-5v23.5h5v-6.9l1.7-1.9c0,0.1,0.1,0.1,0.1,0.2c0.1,0.2,0.2,0.3,0.3,0.5 c0.1,0.1,0.2,0.3,0.3,0.5c0.5,0.7,0.9,1.3,1.2,1.7c0.3,0.4,0.6,0.9,1.1,1.5c0.4,0.6,0.8,1,1,1.3c0.3,0.3,0.6,0.6,0.9,1 c0.4,0.4,0.7,0.7,1,0.9c0.3,0.2,0.6,0.4,0.9,0.6c0.4,0.2,0.7,0.4,1.1,0.5c0.3,0.1,0.7,0.2,1.1,0.3C42,51,42.4,51,42.9,51 c0.6,0,1.2,0,1.7-0.1V46.1z"></path>
        <path d="M158.8,46.1l-0.4,0c-0.2,0-0.4,0-0.7,0c-0.7,0-1.3-0.3-2-1.1c-0.6-0.7-1.5-2-2.6-3.9 c1.3-0.4,2.3-1.1,3.1-2.1c0.9-1.1,1.3-2.5,1.3-4.4c0-1.2-0.2-2.3-0.6-3.2c-0.4-1-1-1.7-1.7-2.3c-0.7-0.6-1.6-1.1-2.5-1.4 c-0.9-0.3-1.9-0.5-3-0.5h-8.5v23.5h5v-8.1h2.1c1,1.7,1.8,3.1,2.5,4c0.7,1,1.4,1.9,2,2.6c0.7,0.7,1.4,1.2,2,1.4 c0.6,0.2,1.4,0.3,2.2,0.3c0.6,0,1.2,0,1.7-0.1V46.1z M151.7,37.3c-0.7,0.6-1.5,0.9-2.5,0.9h-2.9v-6.5h2.9c1.1,0,2,0.3,2.6,0.9 c0.6,0.6,0.9,1.4,0.9,2.5C152.7,36,152.4,36.8,151.7,37.3"></path>
        <rect x="11.9" y="33.3" width="0" height="0"></rect>
        <path d="M14.3,39.5c-0.6-0.5-1.3-0.9-2.1-1.3c-0.8-0.4-1.5-0.7-2.3-1c-0.7-0.3-1.4-0.6-2-0.9 c-0.6-0.3-1-0.6-1.4-1.1C6.2,34.8,6,34.4,6,33.9c0-0.6,0.3-1.6,1.2-1.9c1-0.4,2.6-0.3,3.6,0.4c0.9,0.6,1.2,1,1.9,2.2l4.1-1.8 c-0.7-2.3-2.9-5.6-7.9-5.6c-2.5,0-4.4,0.6-5.7,1.9c-1.4,1.2-2.1,2.9-2.1,5c0,1,0.2,1.8,0.5,2.6c0.3,0.8,0.7,1.4,1.2,1.9 c0.5,0.5,1.1,0.9,1.7,1.3c0.6,0.4,1.3,0.7,2,1c0.6,0.2,1.3,0.5,1.9,0.8c0.6,0.3,1.2,0.5,1.6,0.8c0.4,0.2,0.8,0.5,1.1,0.9 c0.3,0.3,0.4,0.7,0.4,1.1c0,0.9-0.3,2-3,2c-1.1,0-2.1-0.2-3.2-0.6c-1.1-0.4-2-0.9-2.7-1.5L2.1,44l-2,4.2l0.2,0.2 c2.2,1.7,5,2.6,8.1,2.6c2.5,0,4.5-0.6,5.9-1.8c1.4-1.2,2.1-2.8,2.1-4.8c0-1.1-0.2-2-0.6-2.9C15.5,40.7,14.9,40,14.3,39.5"></path>
    </g>
    <g id="svgIconGym">
        <path d="M5.7,0.1c0,0-0.1,0-0.1,0h-2c-0.1,0-0.1,0-0.2,0C2.9,0.3,2.7,0.9,2.5,1.8h-1c-0.1,0-0.1,0-0.2,0 c-1.1,0.4-1.2,3.9-1.2,6c0,2,0.1,5.2,1.1,5.9c0,0,0,0,0,0c0,0,0,0,0,0c0.1,0.1,0.2,0.1,0.3,0.1h1c0.2,0.9,0.4,1.5,0.8,1.7 c0,0,0,0,0,0c0,0,0,0,0,0c0.1,0,0.1,0,0.2,0h2.1c0,0,0,0,0,0c0,0,0,0,0,0c0.4,0,1.1-0.6,1.1-7.7C6.8,0.8,6.1,0.1,5.7,0.1z"></path>
        <path d="M23.3,1.9c-0.1,0-0.1,0-0.2,0h-1c-0.2-0.9-0.4-1.6-0.8-1.7c-0.1,0-0.1,0-0.2,0h-2c0,0-0.1,0-0.1,0 c-0.4,0-1,0.7-1.1,6.8H9.4v2h8.5c0.1,6.3,0.8,6.8,1.1,6.8c0,0,0,0,0,0c0,0,0,0,0,0h2.1c0.1,0,0.1,0,0.2,0l0,0c0,0,0,0,0,0 c0.4-0.2,0.6-0.8,0.8-1.7h1c0.1,0,0.2,0,0.3-0.1c0,0,0,0,0,0c0,0,0,0,0,0c0.9-0.7,1.1-3.9,1.1-5.9C24.5,5.7,24.3,2.2,23.3,1.9z"></path>
    </g>
    <g id="svgIconParking">
        <path d="M10.8,1.6c-0.9-1-2.2-1.5-4.4-1.5H0.1v15.6h3.2V10l0,0V7.1l0,0V2.9h2.9c1.1,0,1.7,0.3,2,0.7 C8.7,4,8.9,4.5,8.9,5c0,0.6-0.2,1-0.6,1.4c-0.4,0.4-0.9,0.7-2,0.7H4.3V10h2.1c2.2,0,3.4-0.5,4.4-1.5c0.8-0.9,1.3-2.2,1.3-3.5 C12.1,3.7,11.6,2.4,10.8,1.6z"></path>
    </g>
    <g id="svgIconBreakfast">
        <path d="M5,6.6C5,7.3,4.4,8,3.6,8v8c0,1.6-2.1,1.6-2.1,0V8C0.8,8,0.1,7.4,0.1,6.5V0.5c0-0.5,0.8-0.5,0.8,0V5h0.6 V0.4c0-0.5,0.7-0.5,0.7,0V5h0.6V0.5c0-0.5,0.7-0.5,0.7,0V5h0.6V0.5C4.2,0,5-0.1,5,0.5V6.6L5,6.6z"></path>
        <path d="M12.4,0.1h-1.3h-0.3h0l0,0c-0.8,0-1.3,0.6-1.3,1.8v7.8h0.8v6.2c0,1.5,2.1,1.5,2.1,0v-14c0-0.1,0-0.1,0-0.2 h0V0.1z"></path>
    </g>
    <g id="svgIconWifi">
        <path d="M22.4,4.8C21.7,5.5,21,6.3,20.2,7c-2.5-2.4-5.5-3.7-9-3.7 c-3.5,0-6.5,1.3-9,3.6C1.6,6.3,0.8,5.5,0.1,4.8C5.7-1,16.1-1.6,22.4,4.8z"></path>
        <path d="M6.7,11.4C6,10.7,5.3,10,4.6,9.2c3.4-3.5,9.6-3.8,13.4,0 c-0.7,0.7-1.4,1.5-2.1,2.2C12.8,9,9.8,9,6.7,11.4z"></path>
        <path d="M11.3,16c-0.8-0.8-1.5-1.5-2.2-2.3c1-1.1,3.1-1.3,4.4,0 c-0.4,0.4-0.7,0.7-1.1,1.1C12,15.2,11.7,15.6,11.3,16z"></path>
    </g>
    <g id="svgLogoPinterest">
        <path d="M8.4,12.3c-1.1,0-2.2-0.6-2.5-1.2c0,0-0.6,2.3-0.7,2.7c-0.4,1.5-1.8,3.1-1.9,3.2 C3.2,17,3,17,3,16.9c0-0.2-0.4-2.1,0-3.7c0.2-0.8,1.3-5.3,1.3-5.3S4,7.2,4,6.3c0-1.4,0.9-2.5,2-2.5c0.9,0,1.4,0.7,1.4,1.5 c0,0.9-0.6,2.2-0.9,3.5c-0.3,1,0.6,1.9,1.6,1.9c2,0,3.3-2.4,3.3-5.2c0-2.1-1.5-3.7-4.3-3.7C4,1.7,2,3.9,2,6.3 c0,0.9,0.3,1.5,0.7,1.9c0.2,0.2,0.2,0.3,0.1,0.5C2.8,9,2.7,9.4,2.6,9.6C2.6,9.8,2.4,9.9,2.1,9.8C0.7,9.3,0,7.8,0,6.1 C0,3.3,2.5,0,7.4,0c4,0,6.6,2.7,6.6,5.6C14,9.4,11.7,12.3,8.4,12.3z"></path>
    </g>
    <g id="svgLogoFacebook">
        <path d="M7.7,8.5H5.3V17H1.7V8.5H0v-3h1.7V3.6C1.7,2.2,2.4,0,5.3,0L8,0v2.9H6 c-0.3,0-0.8,0.2-0.8,0.8v1.8H8L7.7,8.5z"></path>
    </g>
    <g id="svgLogoTwitter">
        <path d="M16.2,3.7c0,0.2,0,0.3,0,0.5c0,5-3.7,10.8-10.5,10.8c-2.1,0-4-0.6-5.7-1.7 c0.3,0,0.6,0.1,0.9,0.1c1.7,0,3.3-0.6,4.6-1.6c-1.6,0-3-1.1-3.4-2.6c0.2,0,0.5,0.1,0.7,0.1c0.3,0,0.7,0,1-0.1c-1.7-0.3-3-1.9-3-3.7 v0c0.5,0.3,1.1,0.5,1.7,0.5c-1-0.7-1.6-1.8-1.6-3.2c0-0.7,0.2-1.3,0.5-1.9c1.8,2.3,4.5,3.8,7.6,4C8.8,4.4,8.8,4.1,8.8,3.8 c0-2.1,1.7-3.8,3.7-3.8c1.1,0,2,0.5,2.7,1.2C16,1,16.8,0.7,17.5,0.3c-0.3,0.9-0.9,1.6-1.6,2.1c0.7-0.1,1.5-0.3,2.1-0.6 C17.5,2.5,16.9,3.2,16.2,3.7z"></path>
    </g>
    <g id="svgLogoGoogleplus">
        <path d="M7.6,6.4v3.2c0,0,2.9,0,4.1,0c-0.6,2.1-1.6,3.2-4.1,3.2c-2.5,0-4.5-2.1-4.5-4.8c0-2.6,2-4.8,4.5-4.8 c1.3,0,2.2,0.5,3,1.2c0.6-0.7,0.6-0.8,2.2-2.3C11.4,0.8,9.6,0,7.6,0C3.4,0,0,3.6,0,8c0,4.4,3.4,8,7.6,8c6.3,0,7.8-5.8,7.3-9.6 C13.5,6.4,7.6,6.4,7.6,6.4z M21.4,6.6V3.8h-1.9v2.8h-2.7v2h2.7v2.9h1.9V8.6H24v-2H21.4z"></path>
    </g>
    <g id="svgLogoInstagram">
        <path d="M14.8,0H2.2C1,0,0,1,0,2.2v12.6C0,16,1,17,2.2,17h12.6c1.2,0,2.2-1,2.2-2.2V2.2 C17,1,16,0,14.8,0z M11.6,2.7c0-0.4,0.3-0.8,0.8-0.8h1.9c0.4,0,0.8,0.3,0.8,0.8v1.8c0,0.4-0.3,0.8-0.8,0.8h-1.9 c-0.4,0-0.8-0.3-0.8-0.8V2.7z M8.5,5.2c1.9,0,3.4,1.5,3.4,3.3c0,1.8-1.5,3.3-3.4,3.3s-3.4-1.5-3.4-3.3C5.1,6.6,6.6,5.2,8.5,5.2z M15.1,14.4c0,0.4-0.3,0.7-0.7,0.7H2.6c-0.4,0-0.7-0.3-0.7-0.7V7.2h1.6c-0.1,0.5-0.2,1-0.2,1.5c0,2.8,2.4,5.1,5.3,5.1 c2.9,0,5.3-2.3,5.3-5.1c0-0.5-0.1-1-0.2-1.5h1.5V14.4z"></path>
    </g>
    <g id="svgIconWedding">
        <path d="M7.2,17C3.2,17,0,13.8,0,9.9s3.2-7.1,7.2-7.1s7.2,3.2,7.2,7.1S11.2,17,7.2,17z M7.2,3.5 c-3.6,0-6.5,2.9-6.5,6.4s2.9,6.4,6.5,6.4s6.5-2.9,6.5-6.4S10.8,3.5,7.2,3.5z"></path>
        <path d="M14.8,17c-4,0-7.2-3.2-7.2-7.1s3.2-7.1,7.2-7.1S22,6,22,9.9S18.8,17,14.8,17z M14.8,3.5 c-3.6,0-6.5,2.9-6.5,6.4s2.9,6.4,6.5,6.4s6.5-2.9,6.5-6.4S18.4,3.5,14.8,3.5z"></path>
        <polygon points="7.2,3.4 4.6,1.4 5.8,0 8.7,0 9.8,1.4"></polygon>
    </g>
    <g id="svgIconTooltip">
        <path d="M7.2,13.5l0.9-0.3V8.2L7.2,7.6V7.4L10,6.6v6.6l1,0.3v0.4H7.2V13.5z M7.9,4.1c0-0.6,0.5-1.1,1.1-1.1 c0.6,0,1.1,0.5,1.1,1.1c0,0.6-0.5,1.1-1.1,1.1C8.4,5.2,7.9,4.7,7.9,4.1z"></path>
        <path d="M9,18c-5,0-9-4-9-9s4-9,9-9c5,0,9,4,9,9S14,18,9,18z M9,0.5C4.3,0.5,0.5,4.3,0.5,9s3.8,8.5,8.5,8.5 s8.5-3.8,8.5-8.5S13.7,0.5,9,0.5z"></path>
    </g>
    <g id="svgIconUndo">
        <path d="M6,12V9c0,0,6-1.5,9,3c0-5-4-9-9-9V0L0,6L6,12z"></path>
    </g>
    <g id="svgIconArchive">
        <path d="M8.7,8.4c0.2,0.3,0.5,0.3,0.7,0L14,3.6C14.1,3.3,14,3,13.6,3h-2.2V0h-5v3H4.4C4,3,3.9,3.3,4,3.6L8.7,8.4z"></path>
        <polygon points="17.3,6.9 17.3,11.3 0.7,11.3 0.7,6.9 0,6.9 0,12 18,12 18,6.9"></polygon>
    </g>
    <g id="svgIconInfo">
        <path d="M8.8,17v-0.5l1.1-0.3V10L8.8,9.3V9l3.4-0.9v8.1l1.2,0.3V17H8.8z M11.9,6c-0.3,0.3-0.6,0.4-0.9,0.4 c-0.3,0-0.7-0.1-0.9-0.4C9.8,5.7,9.7,5.4,9.7,5.1c0-0.3,0.1-0.7,0.4-0.9c0.2-0.3,0.5-0.4,0.9-0.4c0.3,0,0.7,0.1,0.9,0.4 c0.3,0.3,0.4,0.6,0.4,0.9C12.3,5.4,12.2,5.7,11.9,6z"></path>
        <path d="M11,22C4.9,22,0,17.1,0,11S4.9,0,11,0s11,4.9,11,11S17.1,22,11,22z M11,0.7C5.3,0.7,0.7,5.3,0.7,11 s5.3,21.3,11,21.3S21.3,16.7,21.3,11S16.7,0.7,11,0.7z"></path>
    </g>
    <g id="svgSkipperHat">
        <path d="M11.5,9.1c-3.2,0-6.2,0.3-7.9,1.1v0.6c0,1.1,3.3,3.2,7.9,3.2c4.6,0,7.9-1.9,7.9-3.2v-0.6 C17.7,9.3,14.7,9.1,11.5,9.1"></path>
        <path d="M23,5.3C23,4,12.9,0,11.5,0C10,0,0,4,0,5.3c0,1.2,0.7,3.2,2.7,4.1v0C5,8.5,8,8,11.4,8c0.1,0,0.1,0,0.2,0 C15,8,18,8.5,20.3,9.4l0,0C22.3,8.5,23,6.5,23,5.3 M11.5,5.7c-0.8,0-1.9,0-2.9,0.1l2.9-2.8l2.9,2.8C13.4,5.8,12.3,5.7,11.5,5.7"></path>
    </g>
    <g id="svgSkipperBot">
        <path d="M12,9.7c-3.3,0-6.5,0.3-8.3,1.2v0.7c0,1.2,3.4,3.4,8.3,3.4s8.3-2,8.3-3.4v-0.7C18.4,10,15.3,9.7,12,9.7"></path>
        <path d="M11.9,5.9c-0.8,0-2,0-3,0.1l3-3l3,3C14,6,12.8,5.9,11.9,5.9 M24,5.6C24,4.3,13.5,0,11.9,0C10.4,0,0,4.3,0,5.6 C0,7,0.7,9.1,2.8,10.1v0c2.3-1,5.5-1.5,9.1-1.5c0,0,0.1,0,0.1,0c0,0,0.1,0,0.1,0c3.6,0,6.7,0.5,9.1,1.5v0C23.3,9.1,24,7,24,5.6"></path>
        <path fill="#8e99ae" d="M12,9.7c-0.4,0-0.8,0-1.3,0l-4.8,4c0.8,0.4,1.8,0.8,2.9,1l3.7-5C12.4,9.7,12.2,9.7,12,9.7"></path>
    </g>
    <g id="svgIconUnavailable">
        <path d="M10.3,5.5V3.3c0-1.7-2.1-2.8-4-2.8H5.8c-1.9,0-3.4,1.1-3.4,2.8v2.2h-2v8h12v-8H10.3z M4.3,3.3c0-0.9,0.3-0.8,1.4-0.8h0.6c1.1,0,2-0.1,2,0.8v2.2h-4V3.3z"></path>
    </g>
    <g id="svgIconHalfstar">
        <polyline points="7.5,11.2 2.9,13.5 3.8,8.6 0,5.2 5.2,4.4 7.5,0   "></polyline>
    </g>
    <g id="svgIconStar">
        <polygon points="7.5,11.2 2.9,13.5 3.8,8.6 0,5.2 5.2,4.4 7.5,0 9.8,4.4 15,5.2 11.2,8.6 12.1,13.5 "></polygon>
    </g>
    <g id="svgIconSigning">
        <path d="M11,5.9L9,4l-2-2L2.2,5.4C1.9,9,0,11.5,0,11.5l0.5,0.5l3.4-3.4c-0.2-0.4-0.2-1,0.2-1.3 c0.4-0.4,1.1-0.4,1.6,0s0.4,1.1,0,1.6C5.3,9.3,4.8,9.3,4.3,9.1l-3.4,3.4L1.5,13c0,0,2.6-1.9,6.1-2.2L11,5.9z"></path>
        <rect x="9.1" y="0" transform="matrix(0.7071 -0.7071 0.7071 0.7071 1.0517 8.0508)" width="2.2" height="5.6"></rect>
    </g>
    <g id="svgIconSendMessage">
        <path d="M13.9,0.1C13.8,0,13.7,0,13.6,0L0.2,7.7C0.1,7.8,0,7.9,0,8c0,0.1,0.1,0.2,0.2,0.3l4.4,2V15 l2.2-3.7l4.8,2.1c0,0,0.1,0,0.1,0c0,0,0.1,0,0.1,0c0.1,0,0.1-0.1,0.1-0.2l2-12.8C14,0.2,14,0.1,13.9,0.1z M11.5,12.7l-4.4-1.9 l3.9-6.5L4.8,9.7L1,8l12.4-7.1L11.5,12.7z"></path>
    </g>
    <g id="svgIconFind">
        <path d="M11.9,0C8,0,4.8,3.3,4.8,7.3c0,1.9,0.7,3.5,1.8,4.8L0,18.9L1.1,20l6.7-6.9 c1.2,0.9,2.6,1.4,4.1,1.4c3.9,0,7.1-3.3,7.1-7.3S15.8,0,11.9,0z M11.9,13c-3.1,0-5.6-2.6-5.6-5.7s2.5-5.7,5.6-5.7s5.6,2.6,5.6,5.7 S15,13,11.9,13z"></path>
    </g>
    <g id="svgIconRoom">
        <polygon points="0.7,7.4 0.7,0 0,0 0,12 0.7,12 0.7,8.1 17.2,8.1 17.2,12 18,12 18,7.4"></polygon>
        <ellipse cx="3.9" cy="4.4" rx="2" ry="2"></ellipse>
        <path d="M18,6.4H6.8v-4H15c1.7,0,3,1.3,3,3V6.4z"></path>
    </g>
    <g id="svgIconProcessing">
        <ellipse cx="1.5" cy="1.5" rx="1.5" ry="1.5"></ellipse>
        <ellipse cx="7" cy="1.5" rx="1.5" ry="1.5"></ellipse>
        <ellipse cx="12.5" cy="1.5" rx="1.5" ry="1.5"></ellipse>
    </g>
    <g id="svgIconPrint">
        <rect x="7" y="3.3" width="7.8" height="0.8"></rect>
        <path d="M20.4,9.6H18V0H3.9v9.6H1.6C0.7,9.6,0,10.4,0,11.3v7.1C0,19.3,0.7,20,1.6,20h18.8c0.9,0,1.6-0.7,1.6-1.6 v-7.1C22,10.4,21.3,9.6,20.4,9.6z M4.7,0.8h12.4v8.8H4.7V0.8z M17.8,14.7c-0.5,0-0.9-0.4-0.9-0.9c0-0.5,0.4-0.9,0.9-0.9 c0.5,0,0.9,0.4,0.9,0.9C18.7,14.3,18.3,14.7,17.8,14.7z"></path>
        <rect x="7" y="5.9" width="7.8" height="0.8"></rect>
    </g>
    <g id="svgIconPhoto">
        <path d="M16.4,3.2V0H7.6v3.2H0V19h24V3.2H16.4z M12,15.3c-2.4,0-4.4-2.1-4.4-4.6s2-4.6,4.4-4.6s4.4,2.1,4.4,4.6 S14.4,15.3,12,15.3z"></path>
    </g>
    <g id="svgIconPhone">
        <path d="M6.4,0H1.6C0.7,0,0,0.7,0,1.6v10.9C0,13.3,0.7,14,1.6,14h4.8C7.3,14,8,13.3,8,12.4V1.6 C8,0.7,7.3,0,6.4,0z M7.5,11.9h-7V2.3h7V11.9z"></path>
    </g>
    <g id="svgIconPending">
        <path d="M12.3,1.7L12.3,1.7L12.3,1.7L12.3,1.7L12.3,1.7L12.3,1.7L12.3,1.7C12.3,1.8,12.3,1.8,12.3,1.7 C13.4,2.9,14,4.4,14.1,6l1.7,0C15.9,6,16,6,16,6.1c0,0.1,0,0.2,0,0.2l-2.8,2.9c-0.1,0.1-0.2,0.1-0.3,0L10,6.4l0,0 c-0.1-0.1-0.1-0.2,0-0.3C10,6,10.1,6,10.2,6l1.7,0c0-1-0.4-2-1.1-2.7c-1.5-1.5-3.9-1.5-5.4,0C4.9,2.9,4.9,2.8,3.9,1.8 C6.2-0.6,10-0.6,12.3,1.7"></path>
        <path d="M3.7,10.3L3.7,10.3L3.7,10.3L3.7,10.3L3.7,10.3L3.7,10.3L3.7,10.3C3.7,10.2,3.7,10.2,3.7,10.3 C2.6,9.1,2,7.6,1.9,6L0.2,6C0.1,6,0,6,0,5.9c0-0.1,0-0.2,0-0.2l2.8-2.9c0.1-0.1,0.2-0.1,0.3,0L6,5.6l0,0c0.1,0.1,0.1,0.2,0,0.3 C6,6,5.9,6,5.8,6L4.1,6c0,1,0.4,2,1.1,2.7c1.5,1.5,3.9,1.5,5.4,0c0.4,0.5,1,1.1,1.5,1.6C9.8,12.6,6,12.6,3.7,10.3"></path>
    </g>
    <g id="svgIconNewOffer">
        <polygon points="8,2.2 10.5,0 11.1,3.2 14.5,2.9 13.1,5.9 16,7.5 13.1,9.1 14.5,12.1 11.1,11.8 10.5,15 8,12.8 5.5,15 4.9,11.8 1.5,12.1 2.9,9.1 0,7.5 2.9,5.9 1.5,2.9 4.9,3.2 5.5,0     "></polygon>
    </g>
    <g id="svgIconMessage">
        <path d="M23.5,21c-0.1,0-0.1,0-0.2,0c-2.6-1.1-5.7-2.2-6.4-2c-1.3,0.3-2.6,0.5-4,0.5 C5.8,19.4,0,15,0,9.7S5.8,0,13,0c7.2,0,13,4.3,13,9.7c0,2.1-0.9,4.1-2.6,5.8c-0.3,0.3-0.1,2.7,0.6,5c0,0.2,0,0.3-0.2,0.4 C23.7,21,23.6,21,23.5,21z M17.1,18.1c1.3,0,4.3,1.1,5.8,1.8c-0.4-1.6-0.9-4.2-0.2-4.9c1.5-1.5,2.3-3.3,2.3-5.3 c0-4.9-5.4-8.9-12.1-8.9S0.9,4.8,0.9,9.7s5.4,8.9,12.1,8.9c1.3,0,2.5-0.1,3.7-0.4C16.8,18.1,17,18.1,17.1,18.1z"></path>
    </g>
    <g id="svgIconMap">
        <path d="M7.5,0C3.4,0,0,3.3,0,7.5c0,0.1,0,0.2,0,0.3C0,8.5,0.2,9.3,0.4,10C2,15.2,7.5,22,7.5,22 s5.5-6.8,7.1-12C14.8,9.3,15,8.5,15,7.7c0-0.1,0-0.2,0-0.3C15,3.3,11.6,0,7.5,0z M7.5,11.1c-2,0-3.7-1.6-3.7-3.6 c0-2,1.6-3.6,3.7-3.6c2,0,3.7,1.6,3.7,3.6C11.2,9.5,9.5,11.1,7.5,11.1z"></path>
    </g>
    <g id="svgIconList">
        <rect x="7" y="17.6" width="17" height="2.4"></rect>
        <rect y="17.6" width="2.6" height="2.4"></rect>
        <rect x="7" y="8.8" width="17" height="2.4"></rect>
        <rect y="8.8" width="2.6" height="2.4"></rect>
        <rect x="7" width="17" height="2.4"></rect>
        <rect width="2.6" height="2.4"></rect>
    </g>
    <g id="svgIconHotel">
        <path d="M12.9,0H1.1C0.5,0,0,0.5,0,1.1V18h5.1v-4.2h3.7V18H14V1.1C14,0.5,13.5,0,12.9,0z M4.5,11.4 H2V9.1h2.5V11.4z M4.5,7.9H2V5.6h2.5V7.9z M4.5,4.4H2V2.1h2.5V4.4z M8.2,11.4H5.8V9.1h2.5V11.4z M8.2,7.9H5.8V5.6h2.5V7.9z M8.2,4.4H5.8V2.1h2.5V4.4z M12,11.4H9.5V9.1H12V11.4z M12,7.9H9.5V5.6H12V7.9z M12,4.4H9.5V2.1H12V4.4z"></path>
    </g>
    <g id="svgIconEmail">
        <path d="M15.7,0H0.3C0.1,0,0,0.1,0,0.3v10.4C0,10.9,0.1,11,0.3,11h15.4c0.2,0,0.3-0.1,0.3-0.3V0.3 C16,0.1,15.9,0,15.7,0z M8.1,7L1.2,0.6H15L8.1,7z M0.6,0.9l4.8,4.5L0.6,10V0.9z M5.9,5.8l2,1.9C8,7.7,8,7.7,8.1,7.7 c0.1,0,0.2,0,0.2-0.1l1.9-1.8l4.7,4.6H1L5.9,5.8z M10.7,5.4l4.7-4.4V10L10.7,5.4z"></path>
    </g>
    <g id="svgIconDecline">
        <rect x="-1" y="4.2" transform="matrix(0.7071 -0.7071 0.7071 0.7071 -2.2782 5.5)" width="13" height="2.5"></rect>
        <rect x="4.2" y="-1" transform="matrix(0.7071 -0.7071 0.7071 0.7071 -2.2782 5.5)" width="2.5" height="13"></rect>
    </g>
    <g id="svgIconCorrect">
        <polygon points="5.3,15 0,9.1 0.9,8.1 5.3,13.1 17.1,0 18,0.9"></polygon>
    </g>
    <g id="svgIconConfirmed">
        <polygon points="3.8,9 0,5.5 1.8,4 3.8,5.8 10.2,0 12,1.5"></polygon>
    </g>
    <g id="svgIconClose">
        <polygon points="15,0.7 14.3,0 7.5,6.8 0.7,0 0,0.7 6.8,7.5 0,14.3 0.7,15 7.5,8.2 14.3,15 15,14.3 8.2,7.5"></polygon>
    </g>
    <g id="svgIconChevron">
        <path d="M0.4,9.9l4.5-4.6C5,5.1,5,4.8,4.8,4.6L0.4,0.1C0.2-0.1-0.1,0.1,0,0.3l2.5,4.3 c0.1,0.2,0.1,0.5,0,0.7L0,9.7C-0.1,9.9,0.2,10.1,0.4,9.9z"></path>
    </g>
    <g id="svgIconCalendar">
        <g>
            <path d="M17.4,2.6C17.8,3,18,3.5,18,4v12c0,0.5-0.2,1-0.6,1.4S16.6,18,16,18H2c-0.6,0-1-0.2-1.4-0.6S0,16.5,0,16V4 c0-0.6,0.2-1,0.6-1.4S1.5,2,2,2h0.9v2h3.2V2h5.8v2h3.2V2H16C16.6,2,17,2.2,17.4,2.6z M16,16V8H2v8H16L16,16z M3.8,3.4h1.4V0H3.8 v3.4z M12.8,3.4h1.4V0h-1.4V3.4z"></path>
        </g>
    </g>
    <g id="svgIconAlert">
        <path d="M10,10H1c-0.4,0-0.7-0.2-0.9-0.5s-0.2-0.7,0-1l4.5-8C4.8,0.2,5.1,0,5.5,0s0.7,0.2,0.9,0.5l4.5,8 c0.2,0.3,0.2,0.7,0,1C10.7,9.8,10.4,10,10,10z M5.5,0.4C5.3,0.4,5.1,0.5,5,0.7l-4.5,8c-0.1,0.2-0.1,0.4,0,0.6 C0.6,9.5,0.8,9.6,1,9.6h9c0.2,0,0.4-0.1,0.5-0.3c0.1-0.2,0.1-0.4,0-0.6L6,0.7C5.9,0.5,5.7,0.4,5.5,0.4z"></path>
        <path d="M5,8c0-0.3,0.2-0.5,0.5-0.5c0.3,0,0.5,0.2,0.5,0.5c0,0.3-0.2,0.5-0.5,0.5C5.3,8.5,5,8.3,5,8z M6.1,3.4 L5.7,7H5.5L5.1,3.4H6.1z"></path>
    </g>
    <g id="svgIconAccept">
        <path d="M6.1,4.3L0.5,8C0.3,8.1,0,7.9,0,7.7l0-7.4C0,0.1,0.3-0.1,0.5,0l5.7,3.7C6.4,3.9,6.4,4.1,6.1,4.3z"></path>
        <path d="M15.8,4.3L10.2,8c-0.2,0.1-0.5,0-0.5-0.3V0.3c0-0.2,0.3-0.4,0.5-0.3l5.7,3.7C16.1,3.9,16.1,4.1,15.8,4.3z"></path>
    </g>
    <g id="svgIconShuttle">
        <path d="M9.3,1.8C9.2,1.1,8.8,0.8,8.1,0.6C7.5,0.3,6,0,4.9,0C3.8,0,2.3,0.3,1.7,0.6C1,0.8,0.6,1.1,0.5,1.8L0,5.4v5 h0.8v0.8c0,1,1.4,1,1.4,0v-0.8h2.6h0h2.7v0.8c0,1,1.4,1,1.4,0v-0.8h0.8v-5L9.3,1.8z M2.9,0.9h2h2.1c0.4,0,0.4,0.6,0,0.6H4.8h-2 C2.5,1.5,2.5,0.9,2.9,0.9z M1.5,8.9c-0.4,0-0.7-0.3-0.7-0.7c0-0.4,0.3-0.7,0.7-0.7s0.7,0.3,0.7,0.7C2.2,8.6,1.9,8.9,1.5,8.9z M8.1,8.9c-0.4,0-0.7-0.3-0.7-0.7c0-0.4,0.3-0.7,0.7-0.7c0.4,0,0.7,0.3,0.7,0.7C8.8,8.6,8.5,8.9,8.1,8.9z M8.5,5.8H4.8H1.3 c-0.4,0-0.4-0.3-0.4-0.5l0.4-2.7c0.1-0.3,0.2-0.5,0.6-0.5h3H8c0.4,0,0.5,0.2,0.6,0.5l0.4,2.7C9,5.6,8.9,5.8,8.5,5.8z"></path>
    </g>
    <g id="svgIconSmokeFree">
        <rect x="2" y="6" width="2" height="1"></rect>
        <rect x="4.5" y="6" width="4.5" height="1"></rect>
        <path d="M0.9,6c0-1.1,0.4-2.2,1-3C2,2.9,2.2,2.9,2.3,3L9,9.7c0.1,0.1,0.1,0.3,0,0.4c-0.8,0.6-1.9,1-3,1 C3.2,11.1,0.9,8.8,0.9,6z M11.1,6c0,1.1-0.4,2.1-1,3C10,9.1,9.8,9.1,9.7,9L3,2.3C2.9,2.2,2.9,2,3,1.9c0.8-0.6,1.9-1,3-1 C8.8,0.9,11.1,3.2,11.1,6z M6,0C2.7,0,0,2.7,0,6s2.7,6,6,6c3.3,0,6-2.7,6-6S9.3,0,6,0z"></path>
        <path d="M9.4,5.6C9.4,5.6,9.4,5.6,9.4,5.6c-0.2,0-0.2,0-0.3-0.1c0-0.2,0-0.3-0.1-0.5C8.8,4.6,8.6,4.5,8.3,4.4 C8.1,4.4,7.8,4.3,7.5,4.1C6.7,3.5,6.9,2.5,6.9,2.5c0-0.1,0.1-0.1,0.2-0.1c0.1,0,0.1,0.1,0.1,0.2c0,0-0.2,0.8,0.4,1.3 C8,4,8.2,4.1,8.4,4.1c0.3,0.1,0.7,0.2,1,0.8c0.1,0.2,0.2,0.4,0.1,0.6C9.5,5.5,9.5,5.6,9.4,5.6z"></path>
    </g>
    <g id="svgIconSpa">
        <path d="M8.6,11.5H3.8c0.1,0,0.2-0.1,0.3-0.1c0.1-0.1,0.3-0.2,0.4-0.2c0,0,0,0,0,0l0,0c0.3-0.2,0.6-0.5,0.9-0.8 c0.4-0.4,0.8-0.8,0.9-1C6.5,9.4,6.7,9.5,7,9.6C7.2,9.7,7.6,9.8,8.2,10l0,0c0.3,0.1,0.4,0.3,0.4,0.6L8.6,11.5L8.6,11.5z M0.5,11.5 v-0.9c0-0.3,0.2-0.5,0.4-0.6l0,0c0.5-0.1,0.9-0.3,1.2-0.4c0.2-0.1,0.4-0.2,0.6-0.3c0,0.1,0.1,0.3,0.2,0.4c0.3,0.5,0.6,0.8,1,1.1 c-0.5,0.3-1.1,0.5-1.7,0.6L0.5,11.5L0.5,11.5z M5.9,9C5.7,9.3,5.4,9.6,5,10c-0.2,0.2-0.4,0.4-0.7,0.5c-0.4-0.2-0.8-0.6-1-1 C3.3,9.4,3.2,9.2,3.2,9.1c0.2-0.1,0.3-0.3,0.3-0.4l0,0l0,0c0,0,0,0,0,0C3.9,9,4.2,9.1,4.6,9.1c0.3,0,0.7-0.2,1.1-0.4c0,0,0,0,0,0 l0,0l0,0C5.7,8.8,5.7,8.9,5.9,9z M2.5,6.6l0-0.2c0,0,0-0.2,0-0.5c0.1-0.4,0.2-0.7,0.4-1c0.3-0.4,0.8-0.7,1.3-1 c0.4-0.2,0.8-0.3,1.3-0.4C5.8,3.6,6,3.7,6.1,3.9c0.2,0.2,0.4,0.5,0.5,0.8c0.1,0.3,0.2,0.7,0.2,1c0,0.7-0.3,1.4-0.9,2.1 C5.4,8.3,4.8,8.6,4.6,8.6c-0.3,0-0.8-0.3-1.4-0.9C2.9,7.4,2.7,7,2.5,6.6z M1.8,5.6C1.5,5,1.4,4.2,1.6,3.3C1.8,1.7,4,0.5,5.3,0.5 c0.2,0,0.3,0,0.4,0.1C6.1,0.7,6.5,1,6.9,1.4c0.3,0.4,0.5,0.8,0.5,1.1c0,0.1-0.1,0.2-0.3,0.2C5.8,2.8,4.8,3.1,4,3.5 C3.4,3.8,2.9,4.1,2.5,4.6C2.2,5,2,5.5,2,5.8C1.9,5.7,1.9,5.6,1.8,5.6z M7.3,5.4c-0.1-0.9-0.4-1.6-1-2c0.3,0,0.5-0.1,0.8-0.1 c0,0,0,0,0.1,0c0.1,0.2,0.3,0.5,0.3,0.9C7.5,4.5,7.5,4.9,7.3,5.4z M8.3,9.5L8.3,9.5C7.8,9.4,7.4,9.2,7.1,9.1 c-0.8-0.3-1-0.5-1.1-0.6c0,0,0,0,0,0l0-0.2c0.5-0.5,0.9-1.1,1.1-1.8C7.8,5.7,8.1,4.8,8,4C7.9,3.6,7.8,3.3,7.6,3 c0.1-0.1,0.2-0.3,0.2-0.5c0-0.4-0.2-0.9-0.6-1.4c-0.4-0.5-0.9-0.9-1.4-1C5.7,0,5.5,0,5.3,0C4.5,0,3.5,0.3,2.7,0.9 C1.8,1.5,1.2,2.4,1.1,3.3C0.9,4.5,1.2,5.3,1.4,5.8C1.6,6.2,1.8,6.4,2,6.5c0.2,0.7,0.6,1.3,1.1,1.8l0,0.2c0,0,0,0,0,0 c0,0.1-0.1,0.2-0.4,0.3c0,0-0.4,0.2-0.7,0.3C1.7,9.2,1.3,9.4,0.8,9.5l0,0C0.3,9.7,0,10.1,0,10.6V12h9.1v-1.4 C9.1,10.1,8.8,9.7,8.3,9.5z"></path>
    </g>
    <g id="svgIconRoomService">
        <path d="M0.7,9.7c0-4.4,3.3-8,7.3-8s7.3,3.6,7.3,8H0.7z"></path>
        <path d="M15.4,12H0.6C0.3,12,0,11.7,0,11.4v-0.1c0-0.4,0.3-0.6,0.6-0.6h14.7c0.4,0,0.6,0.3,0.6,0.6v0.1C16,11.7,15.7,12,15.4,12z"></path>
        <ellipse cx="8" cy="0.8" rx="0.8" ry="0.8"></ellipse>
        <rect x="7.7" y="0.9" width="0.6" height="1"></rect>
    </g>
    <g id="svgIconBanking">
        <path d="M2.5,12v-1.5c-0.9,0-1.9-0.3-2.5-0.6l0.4-1C1,9.3,1.8,9.5,2.7,9.5c1.1,0,1.9-0.6,1.9-1.4c0-0.8-0.6-1.3-1.8-1.7C1.2,5.8,0.1,5.1,0.1,3.8c0-1.2,0.9-2.1,2.4-2.4V0h1v1.4c1,0,1.6,0.3,2.1,0.5l-0.4,1c-0.3-0.2-1-0.5-2-0.5C2,2.4,1.5,3.1,1.5,3.7c0,0.8,0.6,1.1,2,1.7C5.2,5.9,6,6.7,6,8c0,1.2-0.9,2.2-2.5,2.5V12H2.5z"></path>
    </g>
    <g id="svgIconBar">
        <path d="M3.9,0.9h6.8L9.4,2.3C8.3,1.8,7,1.9,6,2.7c-0.9,0.7-2.1,0.7-3,0L1.4,0.9h0.8 M2.1,0H0.4C0.3,0,0.1,0.1,0,0.3C0,0.4,0,0.6,0.1,0.7L5.6,7v4.1H3.9c-0.2,0-0.4,0.2-0.4,0.4c0,0.2,0.2,0.4,0.4,0.4h4.3c0.2,0,0.4-0.2,0.4-0.4c0-0.2-0.2-0.4-0.4-0.4H6.4V7l5.5-6.3C12,0.6,12,0.4,12,0.3C11.9,0.1,11.7,0,11.6,0H3.9"></path>
    </g>
    <g id="svgIconBeach">
        <path d="M0.7,6.4c-0.1,0-0.1,0-0.2-0.1C0.5,6.3,0.5,6.2,0.5,6.1c0-0.2,0.8-4.1,3.8-5.4c1.9-0.9,4.3-0.4,7,1.2c0.1,0,0.1,0.1,0.1,0.2c0,0.1-0.1,0.2-0.2,0.2L0.7,6.4C0.8,6.4,0.8,6.4,0.7,6.4z M6.4,0.7c-0.7,0-1.3,0.1-1.9,0.4c-2.2,1-3.1,3.6-3.4,4.6l9.6-3.7C9.1,1.2,7.7,0.7,6.4,0.7z"></path>
        <path d="M5.6,0.5c0,0,2.5,1.3,3.1,2.6l-5.3,2C2.9,3.2,4.1,1,4.1,1S5,0.5,5.6,0.5z"></path>
        <polygon points="8.9,11.9 5.3,3.3 5.8,3.1 9.3,11.7"></polygon>
        <ellipse cx="4.6" cy="0.3" rx="0.3" ry="0.3"></ellipse>
        <path d="M7.5,12H0.2C0.1,12,0,11.9,0,11.8c0-0.1,0.1-0.2,0.2-0.2h7.3c0.1,0,0.2,0.1,0.2,0.2C7.8,11.9,7.7,12,7.5,12z"></path>
        <path d="M11.8,12H6.6c-0.1,0-0.2-0.1-0.2-0.2c0-0.1,0.1-0.2,0.2-0.2h5.2c0.1,0,0.2,0.1,0.2,0.2C12,11.9,11.9,12,11.8,12z"></path>
        <path d="M4.4,11.8c-0.8,0-1.4-0.6-1.4-1.3s0.6-1.3,1.4-1.3s1.4,0.6,1.4,1.3S5.1,11.8,4.4,11.8z M4.4,9.6c-0.5,0-0.9,0.4-0.9,0.9s0.4,0.9,0.9,0.9c0.5,0,0.9-0.4,0.9-0.9S4.9,9.6,4.4,9.6z"></path>
    </g>
    <g id="svgIconBellhop">
        <path d="M0.4,0.3L0.4,0.3C0.2,0.3,0,0.5,0,0.7L0,9c0,0.2,0.2,0.4,0.4,0.4h0c0.2,0,0.4-0.2,0.4-0.4V0.7C0.8,0.5,0.6,0.3,0.4,0.3z"></path>
        <rect y="8.1" width="12" height="1.2"></rect>
        <path d="M11.5,8.9L11.5,8.9c-0.3,0-0.5-0.2-0.5-0.5V4.7c0-0.3,0.2-0.5,0.5-0.5h0c0.3,0,0.5,0.2,0.5,0.5v3.7C12,8.6,11.8,8.9,11.5,8.9z"></path>
        <path d="M9.5,7.4H2.5c-0.5,0-1-0.4-1-1V2.2c0-0.5,0.4-1,1-1h6.9c0.5,0,1,0.4,1,1v4.2C10.5,7,10,7.4,9.5,7.4z"></path>
        <rect x="1.6" y="2.6" width="8.9" height="0.7"></rect>
        <path d="M4.9,1.3V0.3c0-0.1,0-0.1,0.1-0.1h2c0,0,0.1,0,0.1,0.1v0.9c0,0.1,0,0.1-0.1,0.1L4.9,1.3C5,1.4,4.9,1.3,4.9,1.3z"></path>
        <path d="M7.1,1.6H5c-0.2,0-0.3-0.2-0.3-0.3V0.3C4.7,0.2,4.8,0,5,0h2c0.2,0,0.3,0.2,0.3,0.3v0.9C7.4,1.5,7.2,1.6,7.1,1.6z M5.1,1.1h1.8V0.5H5.1V1.1z"></path>
        <ellipse cx="2.1" cy="11" rx="0.9" ry="1"></ellipse>
        <ellipse cx="9.8" cy="11" rx="0.9" ry="1"></ellipse>
    </g>
    <g id="svgIconBusinessServices">
        <path d="M11.3,8.1H0.7C0.3,8.1,0,7.8,0,7.4V0.7C0,0.3,0.3,0,0.7,0h10.6C11.7,0,12,0.3,12,0.7v6.6C12,7.8,11.7,8.1,11.3,8.1z M11.3,0.7l-10.5,0l0,6.6l10.5,0V0.7z"></path>
        <path d="M3.1,12C3.1,12,3.1,12,3.1,12c-0.2-0.1-0.3-0.2-0.3-0.4l1.4-4c0.1-0.1,0.2-0.2,0.4-0.2c0.1,0.1,0.2,0.2,0.2,0.4l-1.4,4C3.4,11.9,3.3,12,3.1,12z"></path>
        <path d="M9,12c-0.1,0-0.2-0.1-0.3-0.2l-1.4-4c-0.1-0.1,0-0.3,0.2-0.4c0.1-0.1,0.3,0,0.4,0.2l1.4,4C9.3,11.8,9.2,11.9,9,12C9,12,9,12,9,12z"></path>
        <path d="M1.9,6.8c-0.1,0-0.2,0-0.3-0.1C1.4,6.6,1.4,6.3,1.5,6.1L3.6,3l2.4,2.5l3.1-2.9c0.2-0.2,0.5-0.2,0.7,0c0.2,0.2,0.2,0.5,0,0.7L5.9,6.8L3.7,4.5L2.3,6.6C2.2,6.8,2,6.8,1.9,6.8z"></path>
        <path d="M9,2.9"></path>
        <rect x="8" y="2" width="2.4" height="0.7"></rect>
        <rect x="9.6" y="2" width="0.8" height="2.4"></rect>
    </g>
    <g id="svgIconCasino">
        <path d="M11.5,6.4L7.1,9.3C6.6,9.6,6,9.5,5.7,9L2.8,4.5C2.5,4,2.7,3.4,3.1,3.1l4.5-2.9C8.1-0.1,8.7,0,9,0.5L11.8,5 C12.1,5.5,12,6.1,11.5,6.4z"></path>
        <path fill="#fff" d="M6.5,11.8H1.2c-0.6,0-1-0.4-1-1V5.4c0-0.6,0.4-1,1-1h5.3c0.6,0,1,0.4,1,1v5.4C7.5,11.3,7.1,11.8,6.5,11.8z"></path>
        <path d="M6.3,12H1c-0.6,0-1-0.4-1-1V5.6c0-0.6,0.4-1,1-1h5.3c0.6,0,1,0.4,1,1V11C7.3,11.6,6.8,12,6.3,12z"></path>
        <ellipse fill="#fff" cx="3.6" cy="8.3" rx="0.5" ry="0.5"></ellipse>
        <ellipse fill="#fff" cx="1.4" cy="6.1" rx="0.5" ry="0.5"></ellipse>
        <ellipse fill="#fff" cx="6" cy="6.1" rx="0.5" ry="0.5"></ellipse>
        <ellipse fill="#fff" cx="1.3" cy="10.5" rx="0.5" ry="0.5"></ellipse>
        <ellipse fill="#fff" cx="5.9" cy="10.5" rx="0.5" ry="0.5"></ellipse>
        <path fill="#fff" d="M11.1,5.4c0.1,0.2,0.1,0.5-0.1,0.6c-0.2,0.1-0.5,0.1-0.6-0.1c-0.1-0.2-0.1-0.5,0.1-0.6 C10.6,5.1,10.9,5.1,11.1,5.4z"></path>
        <path fill="#fff" d="M8.4,1c0.1,0.2,0.1,0.5-0.1,0.6C8,1.8,7.7,1.7,7.6,1.5S7.5,1,7.7,0.9C8,0.7,8.2,0.8,8.4,1z"></path>
        <path fill="#fff" d="M4.4,3.5C4.5,3.7,4.5,4,4.3,4.1C4,4.3,3.8,4.2,3.6,4C3.5,3.7,3.6,3.5,3.8,3.3S4.3,3.3,4.4,3.5z"></path>
    </g>
    <g id="svgIconChildcare">
        <path d="M5.3,10.5C2.4,10.5,0,8.1,0,5.2C0,2.4,2.4,0,5.3,0h0.3v5.5h-5C0.7,8,2.8,9.9,5.3,9.9V10.5z M0.6,5H5V0.6C2.6,0.7,0.7,2.6,0.6,5z"></path>
        <path d="M5.3,10.5C2.4,10.5,0,8.1,0,5.2V5h10.5v0.3C10.5,8.1,8.1,10.5,5.3,10.5z M0.6,5.5C0.7,8,2.8,9.9,5.3,9.9S9.8,8,9.9,5.5H0.6z"></path>
        <path d="M9.9,5.3c0,0-0.1-0.9,0.4-1.6C10.7,3.3,11.3,3,12,3l0,0.6c-0.5,0-0.9,0.2-1.2,0.5c-0.4,0.5-0.3,1.1-0.3,1.1L9.9,5.3z"></path>
        <path d="M2.6,12c-0.6,0-1.2-0.5-1.2-1.2S2,9.7,2.6,9.7s1.2,0.5,1.2,1.2S3.2,12,2.6,12z M2.6,10.3c-0.3,0-0.6,0.3-0.6,0.6s0.3,0.6,0.6,0.6s0.6-0.3,0.6-0.6S2.9,10.3,2.6,10.3z"></path>
        <path d="M7.9,12c-0.6,0-1.2-0.5-1.2-1.2s0.5-1.2,1.2-1.2s1.2,0.5,1.2,1.2S8.5,12,7.9,12z M7.9,10.3c-0.3,0-0.6,0.3-0.6,0.6s0.3,0.6,0.6,0.6s0.6-0.3,0.6-0.6S8.2,10.3,7.9,10.3z"></path>
    </g>
    <g id="svgIconDryCleaning">
        <path d="M19.9,10.9l-9.5-6c-0.1,0-0.1-0.1-0.1-0.1V3.4c0-0.1,0-0.3,0.2-0.3c0.7-0.2,1.1-0.8,1.1-1.5c0-0.9-0.9-1.6-1.9-1.6S7.9,0.7,7.9,1.6C7.9,1.8,8.1,2,8.3,2c0.3,0,0.5-0.2,0.5-0.4c0-0.4,0.4-0.8,0.9-0.8c0.5,0,0.9,0.4,0.9,0.8c0,0.3-0.2,0.6-0.6,0.7C9.6,2.5,9.3,2.9,9.3,3.4v1.4c0,0.1,0,0.1-0.1,0.1l-8.9,6c-0.8,0.6-0.2,1.5,0.2,1.5h18.9C20.1,12.5,20.7,11.5,19.9,10.9z M1.8,11.1C3.4,10.1,8.6,6.7,9.7,6c0.1-0.1,0.3-0.1,0.4,0c1.1,0.7,6.7,4.1,8.4,5.2c0.1,0.1,0.1,0.3-0.1,0.3H1.9C1.7,11.5,1.6,11.2,1.8,11.1z"></path>
    </g>
    <g id="svgIconConferenceSpace">
        <path d="M9.7,7.2"></path>
        <polygon points="0,7.8 0,9.1 0.4,9.1 0.4,11.2 11.6,11.2 11.6,9.1 12,9.1 12,7.8"></polygon>
        <path d="M6.9,3.9"></path>
        <path d="M6,3.5"></path>
        <circle cx="6" cy="1.7" r="1.7"></circle>
        <path d="M9.9,6.7V6c0-0.4-0.2-0.8-0.6-0.9L7.2,4.2c0,0-1-0.6-2.1-0.1l-2.4,1C2.3,5.2,2.1,5.6,2.1,6v0.7v0.6v0h3.5v0l0-0.3h0.6l0,0.4l0,0h3.5L9.9,6.7L9.9,6.7z"></path>
        <polygon points="6,6.7 6,6.7 6.4,6.7 6.4,7.1 5.6,7.1 5.6,6.7"></polygon>
        <rect x="5.9" y="5.8" width="0.3" height="1.5"></rect>
        <path d="M6.1,4.8H5.9C5.8,4.8,5.7,4.9,5.7,5v0.5c0,0.1,0.1,0.2,0.2,0.2h0.2c0.1,0,0.2-0.1,0.2-0.2V5C6.4,4.9,6.2,4.8,6.1,4.8z"></path>
    </g>
    <g id="svgIconFrontDesk">
        <path d="M6.1,0C2.7,0,0,2.7,0,6s2.7,6,6.1,6v-0.4C3,11.6,0.4,9.1,0.4,6S3,0.4,6.1,0.4"></path>
        <path d="M6.1,0.4c3.1,0,5.7,2.5,5.7,5.6v0l-0.4-0.4c-0.1-0.1-0.2-0.1-0.3,0c-0.1,0.1-0.1,0.2,0,0.3l1,1l1-1c0-0.1,0-0.2,0-0.3c-0.1-0.1-0.2-0.1-0.3,0L12.1,6v0c0-3.3-2.7-6-6.1-6"></path>
        <circle cx="6.1" cy="11.8" r="0.2"></circle>
        <circle cx="12.8" cy="5.7" r="0.2"></circle>
        <path d="M5.9,2C3.8,2,2,3.8,2,5.9c0,2.2,1.8,3.9,4,3.9c2.2,0,4-1.8,4-3.9C9.9,3.8,8.1,2,5.9,2z M5.9,10.4c-2.5,0-4.5-2-4.5-4.5s2-4.5,4.5-4.5s4.5,2,4.5,4.5S8.4,10.4,5.9,10.4z"></path>
        <path d="M8.3,6.2H5.9c-0.2,0-0.3-0.1-0.3-0.3V3.1c0-0.2,0.1-0.3,0.3-0.3c0.2,0,0.3,0.1,0.3,0.3v2.6h2.2c0.2,0,0.3,0.1,0.3,0.3C8.6,6.1,8.5,6.2,8.3,6.2z"></path>
    </g>
    <g id="svgIconPool">
        <path d="M7.6,8c-0.2,0-0.4,0-0.6-0.1C6.8,7.7,6.5,7.4,6.5,7.4C6.2,7.1,5.8,7.1,5.8,7.1c-0.3,0-0.6,0.3-0.7,0.3C4.8,7.8,4.4,8,3.9,7.9C3.6,7.8,3.2,7.6,3,7.4C2.5,7,2.1,7,1.6,7.4C0.9,8,0.3,7.8,0.2,7.8c0,0-0.2-0.1-0.2-0.3c0.1-0.2,0.3-0.1,0.3-0.1l0,0c0,0,0.4,0.1,0.9-0.3c0.6-0.5,1.3-0.5,2,0C4,7.5,4.4,7.5,4.8,7.1c0,0,0.4-0.5,1-0.5c0,0,0.6,0,1,0.5c0.1,0.1,0.7,0.6,1.3,0.2C8.3,7.2,8.4,7,8.8,6.9C9.3,6.7,9.9,6.7,10.3,7l0,0c0.2,0.2,0.9,0.6,1.2,0.4c0,0,0.2-0.2,0.3,0c0.1,0.2-0.1,0.4-0.1,0.4c-0.2,0.1-0.3,0.2-0.5,0.2c-0.6,0-1.1-0.4-1.3-0.5C9.3,6.9,8.4,7.7,8.4,7.7l0,0C8.2,7.9,7.9,8,7.6,8z"></path>
        <path d="M3.4,5.7c0.7,0.5,1,0.4,1.4,0c0,0,0.4-0.4,1-0.4c0,0,0.6,0,1,0.5C7,5.8,7.6,6.4,8.1,5.9c0.4-0.3,0.7-0.4,1-0.4C9.2,5.5,8,3.7,8,3.7L6.6,1.8l3-0.8c0,0,0.5-0.1,0.3-0.7C9.7-0.1,9.2,0,9.2,0l-4,1c0,0-0.3,0.3,0,0.8s1.2,1.7,1.2,1.7L3.2,5.5L3.4,5.7z"></path>
        <circle cx="10" cy="3.6" r="1.3"></circle>
        <path d="M7.6,7c-0.2,0-0.4,0-0.6-0.1C6.8,6.7,6.5,6.4,6.5,6.4C6.2,6.1,5.8,6.1,5.8,6.1c-0.3,0-0.6,0.3-0.7,0.3C4.8,6.8,4.4,7,3.9,6.9C3.6,6.8,3.2,6.6,3,6.4C2.5,6,2.1,6,1.6,6.4C0.9,7.1,0.3,6.8,0.2,6.8c0,0-0.2-0.1-0.2-0.3c0.1-0.2,0.3-0.1,0.3-0.1l0,0c0,0,0.4,0.1,0.9-0.3c0.6-0.5,1.3-0.5,2,0C4,6.5,4.4,6.5,4.8,6.1c0,0,0.4-0.5,1-0.5c0,0,0.6,0,1,0.5c0.1,0.1,0.7,0.6,1.3,0.2C8.3,6.2,8.4,6,8.8,5.9C9.3,5.7,9.9,5.7,10.3,6l0,0c0.2,0.2,0.9,0.6,1.2,0.4c0,0,0.2-0.2,0.3,0c0.1,0.2-0.1,0.4-0.1,0.4c-0.2,0.1-0.3,0.2-0.5,0.2c-0.6,0-1.1-0.4-1.3-0.5C9.3,5.9,8.4,6.7,8.4,6.7l0,0C8.2,6.9,7.9,7,7.6,7z"></path>
    </g>
    <g id="svgIconRestaurant">
        <path d="M2.2,0L2.2,0C2.1,0,2.1,0.1,2.1,0.1v3.8H1.3V0.1C1.3,0.1,1.3,0,1.2,0h0C1.1,0,1,0.1,1,0.1v3.8H0.3V0.1C0.3,0.1,0.2,0,0.2,0h0C0.1,0,0,0.1,0,0.1v3.8v0.7v0h0c0,0,0,0,0,0c0,0.5,0.3,0.8,0.6,1v5.9c0,0.2,0.2,0.5,0.5,0.5h0.2c0.2,0,0.5-0.2,0.5-0.5V5.7c0.4-0.2,0.6-0.6,0.6-1c0,0,0,0,0,0h0v0V3.9V0.1C2.4,0.1,2.3,0,2.2,0z"></path>
        <path d="M5.5,0H5.3H4.6C4.3,0,4.1,0.2,4.1,0.5v0.2v0.2v4.9H5v0.4v0.6v5C5,11.8,5.2,12,5.4,12h0.3C5.8,12,6,11.8,6,11.6v-5V6.1V5.8V4.9V1.2V0.9V0.7V0.5V0H5.5z"></path>
    </g>
    <g id="svgIconGuaranteed">
        <path fill="#FF8D00" d="M2,3v3h2V3.5C4.2,2.1,5,2,7,2V0C4,0,2,1,2,3z"></path>
        <path fill="#FF8D00" d="M12,3v3h-2V3.5C9.8,2.1,9,2,7,2V0C10,0,12,1,12,3z"></path>
        <rect x="0" y="6" fill="#FFAF4C" width="7" height="8"></rect>
        <rect x="7" y="6" fill="#FF8D00" width="7" height="8"></rect>
    </g>
    <g id="svgIconDynamic">
        <path fill="#40B4E5" d="M7,0h2c0.6,0,1,0.4,1,1v11c0,0.6-0.4,1-1,1H7c-0.6,0-1-0.4-1-1V1C6,0.4,6.4,0,7,0z"></path>
        <path fill="#40B4E5" d="M13,4h2c0.6,0,1,0.4,1,1v7c0,0.6-0.4,1-1,1h-2c-0.6,0-1-0.4-1-1V5C12,4.4,12.4,4,13,4z"></path>
        <path fill="#40B4E5" d="M1,6h2c0.6,0,1,0.4,1,1v5c0,0.6-0.4,1-1,1H1c-0.6,0-1-0.4-1-1V7C0,6.4,0.4,6,1,6z"></path>
    </g>
    <g id="svgIconInstant">
        <polygon points="0,11.7 3,11.7 1.9,20 10,7.8 7.2,7.8 8.4,0"/>
    </g>
</svg>